<?xml version="1.0" encoding="utf-8"?>
<!-- Generator: Adobe Illustrator 22.1.0, SVG Export Plug-In . SVG Version: 6.00 Build 0)  -->
<svg version="1.1" id="Layer_1" xmlns="http://www.w3.org/2000/svg" xmlns:xlink="http://www.w3.org/1999/xlink" x="0px" y="0px"
	 viewBox="0 0 395 49" style="enable-background:new 0 0 395 49;" xml:space="preserve">
<style type="text/css">
	.st0{fill:#FFFFFF;}
	.st1{enable-background:new    ;}
</style>
<title>Logo/Tag Copy</title>
<desc>Created with Sketch.</desc>
<g id="Logo_x2F_Tag-Copy" transform="translate(76.000000, 136.000000)">
	<g>
		<path class="st0" d="M-18.2-135.1l-11.5,36.5h8.4l2.3-8.7h11.1l2.2,8.7h8.7l-11.5-36.5H-18.2z M-17.3-113.7l0.9-3.4
			c1-3.6,2-7.9,2.9-11.8h0.2c1,3.8,1.9,8.1,3,11.8l0.9,3.4H-17.3z"/>
		<path class="st0" d="M19.7-112.4h6v6.3c-0.9,0.7-2.4,1.1-3.9,1.1c-6.9,0-10.3-4.4-10.3-11.9c0-7.3,4-11.7,9.6-11.7
			c3.1,0,5.1,1.2,6.9,2.9l4.3-5.3c-2.5-2.5-6.2-4.7-11.5-4.7c-9.7,0-17.8,7-17.8,19.1c0,12.3,7.8,18.7,17.9,18.7c5.1,0,9.5-2,12-4.4
			v-16.8H19.7V-112.4z"/>
		<rect x="38.7" y="-135.1" class="st0" width="8.3" height="36.5"/>
		<polygon class="st0" points="61.1,-135.1 52.8,-135.1 52.8,-98.6 75.5,-98.6 75.5,-105.5 61.1,-105.5 		"/>
		<polygon class="st0" points="87,-113.9 99.5,-113.9 99.5,-120.8 87,-120.8 87,-128.2 101.6,-128.2 101.6,-135.1 78.8,-135.1 
			78.8,-98.6 102.2,-98.6 102.2,-105.5 87,-105.5 		"/>
		<path class="st0" d="M120.7-101.8c-5,0-8.4-4.2-8.4-10.4c0-6.2,3.6-10.5,8.5-10.5c2.1,0,3.8,1,5.4,2.4l2.4-3
			c-1.9-1.7-4.4-3.2-8-3.2c-7,0-13.1,5.2-13.1,14.3c0,9,5.5,14.2,12.8,14.2c3.3,0,6.4-1.3,8.8-3.5l-2-3.1
			C125.4-103,123.2-101.8,120.7-101.8z"/>
		<path class="st0" d="M143-126.5c-4.4,0-8.2,1.9-10.7,3.6l1.8,3.2c2.1-1.4,5-2.9,8.1-2.9c4.4,0,5.6,3.4,5.6,6.9
			c-11.6,1.3-16.7,4.2-16.7,10.2c0,4.9,3.4,7.7,8,7.7c3.4,0,6.4-1.8,9-3.9h0.2l0.4,3.3h3.8v-16.7C152.5-122.1,149.7-126.5,143-126.5
			z M147.9-105.2c-2.6,2.3-4.8,3.6-7.4,3.6c-2.7,0-4.8-1.3-4.8-4.4c0-3.5,3.1-5.7,12.2-6.8V-105.2z"/>
		<path class="st0" d="M186.5-126.5c-3.3,0-6.1,2.1-9,5.2c-1.1-3.2-3.4-5.2-7.5-5.2c-3.2,0-6.1,2-8.5,4.6h-0.2l-0.4-3.9h-3.8v27.2
			h4.6v-19.7c2.5-2.8,4.8-4.2,6.8-4.2c3.5,0,5.1,2.2,5.1,7.2v16.7h4.6v-19.7c2.5-2.8,4.7-4.2,6.8-4.2c3.5,0,5.1,2.2,5.1,7.2v16.7
			h4.6v-17.2C194.8-122.8,192.1-126.5,186.5-126.5z"/>
		<path class="st0" d="M212.2-126.5c-3.2,0-6.2,1.8-8.7,3.8h-0.2l-0.4-3.1h-3.8v38.7h4.6v-9.2l-0.1-4.8c2.5,2,5.1,3.2,7.5,3.2
			c6.2,0,11.8-5.4,11.8-14.7C223-121,219.2-126.5,212.2-126.5z M210.4-101.8c-1.8,0-4.2-0.8-6.6-2.8v-14.3c2.6-2.4,5-3.7,7.3-3.7
			c5.1,0,7.2,4,7.2,10C218.2-105.9,214.9-101.8,210.4-101.8z"/>
		<path class="st0" d="M-36.8-133.6c-2.8-2.8-7.3-2.9-10.2-0.4c-6-2.1-13-0.8-17.8,4.1c-0.3,0.3-0.6,0.7-0.9,1
			c-2.6-0.9-5.7-0.3-7.8,1.8c-2.9,2.9-2.9,7.7,0,10.6c1.1,1.1,2.5,1.8,4,2.1c0.6,3.3,2.3,6.4,4.7,8.8c2.5,2.5,5.6,4.1,8.8,4.7
			c0.3,1.5,0.9,2.9,2.1,4c2.9,2.9,7.7,2.9,10.6,0c2.1-2.1,2.7-5.2,1.8-7.8c0.3-0.3,0.7-0.6,1-0.9c4.8-4.8,6.2-11.8,4.1-17.8
			C-33.9-126.3-34-130.8-36.8-133.6z M-41.9-106.9c-0.2,0.2-0.4,0.3-0.5,0.5c-0.3-0.4-0.5-0.7-0.9-1.1c-2.9-2.9-7.7-2.9-10.6,0
			c-1.3,1.3-2,2.9-2.1,4.6c-2.7-0.6-5.3-2-7.4-4.1c-2.1-2.1-3.5-4.6-4.1-7.4c1.7-0.2,3.4-0.8,4.6-2.1c2.9-2.9,2.9-7.7,0-10.6
			c-0.3-0.3-0.7-0.6-1.1-0.9c0.2-0.2,0.3-0.4,0.5-0.5c3-3,6.9-4.5,10.8-4.5c1.4,0,2.9,0.2,4.2,0.6c-1.9,2.9-1.6,6.9,1,9.4
			c2.6,2.6,6.5,2.9,9.4,1C-36.5-116.8-37.8-111-41.9-106.9z"/>
	</g>
	<g class="st1">
		<path class="st0" d="M233.4-100.6c8.1-8,12.6-12.9,12.6-17.2c0-3.1-1.7-5.3-5.1-5.3c-2.2,0-4.2,1.4-5.7,3.2l-2-2
			c2.2-2.4,4.6-4.1,8.1-4.1c5,0,8,3.2,8,7.9c0,5-4.6,10-10.9,16.7c1.5-0.1,3.1-0.3,4.5-0.3h7.8v3h-17.3V-100.6z"/>
		<path class="st0" d="M252.7-112c0-9,3.2-13.8,8.6-13.8c5.3,0,8.6,4.8,8.6,13.8s-3.2,14-8.6,14C255.9-98,252.7-103,252.7-112z
			 M266.5-112c0-7.9-2.1-11-5.2-11c-3.2,0-5.2,3.2-5.2,11s2.1,11.2,5.2,11.2C264.4-100.8,266.5-104.1,266.5-112z"/>
	</g>
	<g class="st1">
		<path class="st0" d="M273.2-101.4h6.1v-19.7h-4.9v-2.2c2.4-0.4,4.2-1.1,5.7-2h2.6v23.9h5.5v2.9h-15.1V-101.4z"/>
		<path class="st0" d="M293-103c1.1,1.3,2.7,2.1,4.4,2.1c3.8,0,7-2.9,7.1-11.5c-1.7,2.1-4.1,3.4-6.3,3.4c-4.6,0-7.6-2.8-7.6-8.3
			c0-5.1,3.6-8.6,7.9-8.6c5.3,0,9.2,4.3,9.2,12.9c0,10.8-4.9,14.9-10.2,14.9c-2.9,0-5-1.2-6.5-2.8L293-103z M304.5-115.1
			c-0.5-5.2-2.5-8-5.9-8c-2.6,0-4.7,2.4-4.7,5.9c0,3.5,1.6,5.7,5,5.7C300.5-111.5,302.7-112.5,304.5-115.1z"/>
	</g>
</g>
</svg>
