<?xml version="1.0" encoding="UTF-8" standalone="no"?><!DOCTYPE svg PUBLIC "-//W3C//DTD SVG 1.1//EN" "http://www.w3.org/Graphics/SVG/1.1/DTD/svg11.dtd"><svg width="100%" height="100%" viewBox="0 0 1021 168" version="1.1" xmlns="http://www.w3.org/2000/svg" xmlns:xlink="http://www.w3.org/1999/xlink" xml:space="preserve" xmlns:serif="http://www.serif.com/" style="fill-rule:evenodd;clip-rule:evenodd;stroke-linejoin:round;stroke-miterlimit:1.41421;"><g><clipPath id="_clip1"><rect x="0" y="0" width="636.547" height="103.656" clip-rule="nonzero"/></clipPath><g clip-path="url(#_clip1)"><path d="M124.537,47.005l1.865,-7.194c2.16,-7.772 4.235,-16.872 6.119,-25.081l0.475,0c2.075,8.109 4.15,17.309 6.316,25.081l1.856,7.194l-16.631,0Zm-1.904,-45.569l-24.421,77.76l17.978,0l4.803,-18.522l23.703,0l4.784,18.522l18.607,0l-24.419,-77.76l-21.035,0Z" style="fill:#fff;fill-rule:nonzero;"/><path d="M203.398,49.705l12.882,0l0,13.431c-1.894,1.494 -5.119,2.312 -8.232,2.312c-14.643,0 -21.881,-9.293 -21.881,-25.278c0,-15.59 8.51,-24.987 20.478,-24.987c6.657,0 10.816,2.631 14.675,6.187l9.263,-11.278c-5.235,-5.278 -13.25,-10.094 -24.535,-10.094c-20.759,0 -37.896,14.963 -37.896,40.763c0,26.194 16.662,39.866 38.084,39.866c10.85,0 20.297,-4.172 25.656,-9.422l0,-35.85l-28.494,0l0,14.35Z" style="fill:#fff;fill-rule:nonzero;"/><rect x="243.863" y="1.434" width="17.578" height="77.759" style="fill:#fff;"/><path d="M291.524,1.435l-17.578,0l0,77.759l48.275,0l0,-14.747l-30.697,0l0,-63.012Z" style="fill:#fff;fill-rule:nonzero;"/><path d="M346.833,46.536l26.513,0l0,-14.747l-26.513,0l0,-15.613l31.144,0l0,-14.74l-48.722,0l0,77.759l49.916,0l0,-14.747l-32.338,0l0,-17.912Z" style="fill:#fff;fill-rule:nonzero;"/><path d="M418.507,72.454c-10.666,0 -17.938,-8.894 -17.938,-22.185c0,-13.29 7.7,-22.334 18.203,-22.334c4.56,0 8.125,2.072 11.506,5.125l5.022,-6.488c-4.084,-3.665 -9.356,-6.809 -16.972,-6.809c-14.828,0 -27.903,11.153 -27.903,30.506c0,19.203 11.772,30.357 27.203,30.357c6.963,0 13.538,-2.729 18.75,-7.372l-4.256,-6.575c-3.619,3.203 -8.315,5.775 -13.615,5.775" style="fill:#fff;fill-rule:nonzero;"/><path d="M476.455,65.045c-5.616,4.947 -10.238,7.675 -15.844,7.675c-5.688,0 -10.159,-2.685 -10.159,-9.269c0,-7.419 6.568,-12.178 26.003,-14.513l0,16.107Zm-10.325,-45.282c-9.307,0 -17.447,4.069 -22.778,7.575l3.84,6.725c4.541,-3.037 10.585,-6.215 17.294,-6.215c9.472,0 11.947,7.187 11.969,14.647c-24.719,2.687 -35.622,9.003 -35.622,21.643c0,10.463 7.287,16.488 16.994,16.488c7.2,0 13.653,-3.766 19.181,-8.366l0.325,0l0.828,6.935l8.109,0l0,-35.585c0,-14.437 -5.99,-23.847 -20.14,-23.847" style="fill:#fff;fill-rule:nonzero;"/><path d="M558.805,19.765c-7.056,0 -13.1,4.531 -19.125,11.053c-2.39,-6.806 -7.143,-11.053 -16.009,-11.053c-6.906,0 -12.975,4.362 -18.044,9.843l-0.331,0l-0.828,-8.409l-8.103,0l0,57.997l9.815,0l0,-42.003c5.36,-5.966 10.182,-8.903 14.532,-8.903c7.375,0 10.787,4.618 10.787,15.425l0,35.481l9.816,0l0,-42.003c5.365,-5.966 10.037,-8.903 14.531,-8.903c7.375,0 10.797,4.618 10.797,15.425l0,35.481l9.809,0l0,-36.75c0,-14.797 -5.728,-22.681 -17.647,-22.681" style="fill:#fff;fill-rule:nonzero;"/><path d="M609.739,72.365c-3.835,0 -8.875,-1.618 -14.116,-6.028l0,-30.403c5.634,-5.209 10.588,-7.909 15.494,-7.909c10.912,0 15.287,8.578 15.287,21.375c0,14.325 -7.065,22.965 -16.665,22.965m3.809,-52.6c-6.716,0 -13.241,3.769 -18.481,8.125l-0.331,0l-0.829,-6.69l-8.106,0l0,82.459l9.822,0l0,-19.628l-0.266,-10.125c5.319,4.269 10.763,6.719 16.072,6.719c13.25,0 25.119,-11.538 25.119,-31.313c0,-17.915 -8.012,-29.547 -23,-29.547" style="fill:#fff;fill-rule:nonzero;"/><path d="M72.184,61.484c-0.369,0.368 -0.766,0.69 -1.147,1.037c-0.544,-0.784 -1.134,-1.544 -1.831,-2.247c-6.266,-6.262 -16.425,-6.262 -22.691,0c-2.762,2.76 -4.231,6.278 -4.562,9.885c-5.778,-1.31 -11.275,-4.182 -15.769,-8.675c-4.403,-4.4 -7.356,-9.847 -8.697,-15.772c3.613,-0.325 7.138,-1.797 9.903,-4.56c6.266,-6.265 6.266,-16.425 0,-22.69c-0.7,-0.7 -1.462,-1.294 -2.247,-1.835c0.347,-0.381 0.672,-0.781 1.041,-1.146c6.344,-6.341 14.669,-9.513 23,-9.513c3.044,0 6.088,0.434 9.034,1.284c-4.059,6.222 -3.368,14.638 2.097,20.1c5.46,5.463 13.878,6.157 20.1,2.097c3.163,11.01 0.428,23.378 -8.231,32.035m10.819,-56.822c-5.981,-5.978 -15.466,-6.185 -21.769,-0.75c-12.862,-4.46 -27.719,-1.603 -37.972,8.65c-0.687,0.687 -1.322,1.415 -1.947,2.147c-5.631,-1.96 -12.118,-0.744 -16.615,3.753c-6.269,6.265 -6.269,16.425 0,22.69c2.409,2.41 5.397,3.872 8.512,4.429c1.381,7.087 4.831,13.606 10.05,18.825c5.338,5.331 11.919,8.671 18.822,10.025c0.553,3.125 2.016,6.121 4.431,8.534c6.266,6.266 16.425,6.266 22.691,0c4.497,-4.5 5.712,-10.984 3.747,-16.616c0.731,-0.625 1.462,-1.256 2.153,-1.943c10.25,-10.254 13.106,-25.11 8.647,-37.972c5.434,-6.303 5.231,-15.791 -0.75,-21.772" style="fill:#fff;fill-rule:nonzero;"/></g></g><g><path d="M659.538,79.059l36.693,0l0,-6.323l-16.476,0c-2.939,0 -6.413,0.267 -9.53,0.534c13.448,-14.072 23.156,-24.67 23.156,-35.357c0,-10.065 -6.501,-16.744 -17.011,-16.744c-7.392,0 -12.468,3.473 -17.189,8.639l4.186,4.186c3.295,-3.83 7.392,-6.858 12.113,-6.858c7.214,0 10.776,4.631 10.776,11.133c0,9.173 -9.618,19.415 -26.718,36.426l0,4.364Z" style="fill:#fff;fill-rule:nonzero;"/><path d="M721.947,80.128c11.311,0 18.169,-10.598 18.169,-29.658c0,-19.059 -6.858,-29.301 -18.169,-29.301c-11.4,0 -18.258,10.242 -18.258,29.301c0,19.06 6.858,29.658 18.258,29.658Zm0,-5.878c-6.68,0 -11.133,-7.125 -11.133,-23.78c0,-16.654 4.453,-23.423 11.133,-23.423c6.591,0 11.044,6.769 11.044,23.423c0,16.655 -4.453,23.78 -11.044,23.78Z" style="fill:#fff;fill-rule:nonzero;"/><path d="M745.289,79.059l32.063,0l0,-6.056l-11.757,0l0,-50.765l-5.611,0c-3.117,1.87 -6.857,3.295 -12.023,4.185l0,4.721l10.331,0l0,41.859l-13.003,0l0,6.056Z" style="fill:#fff;fill-rule:nonzero;"/><path d="M790.572,63.83c0,-5.166 3.384,-9.352 7.926,-12.38c8.194,3.295 15.408,5.967 15.408,13.27c0,5.878 -4.542,9.975 -11.133,9.975c-6.946,0 -12.201,-4.542 -12.201,-10.865Zm16.031,-15.764c-6.858,-2.672 -13.092,-5.522 -13.092,-12.291c0,-5.522 3.919,-9.173 9.173,-9.173c6.235,0 9.886,4.453 9.886,10.064c0,4.186 -2.137,8.015 -5.967,11.4Zm-22.622,16.476c0,8.996 7.927,15.586 18.614,15.586c11.044,0 18.347,-6.68 18.347,-15.14c0,-7.66 -4.809,-11.668 -9.886,-14.607l0,-0.356c3.474,-2.672 7.838,-7.748 7.838,-13.716c0,-8.817 -6.146,-15.14 -16.031,-15.14c-9.174,0 -16.121,5.878 -16.121,14.606c0,5.967 3.741,10.153 7.927,13.092l0,0.356c-5.344,2.85 -10.688,7.927 -10.688,15.319Z" style="fill:#fff;fill-rule:nonzero;"/><path d="M98.969,154.406l18.89,0l0,-4.594l-13.453,0l0,-9.046l11.016,0l0,-4.594l-11.016,0l0,-7.828l12.985,0l0,-4.594l-18.422,0l0,30.656Z" style="fill:#fff;fill-rule:nonzero;"/><path d="M120.812,154.406l5.626,0l2.437,-4.547c0.656,-1.406 1.359,-2.765 2.016,-4.078l0.187,0c0.797,1.313 1.594,2.719 2.344,4.078l2.812,4.547l5.813,0l-7.313,-11.39l6.797,-11.625l-5.578,0l-2.203,4.359c-0.563,1.266 -1.219,2.625 -1.781,3.891l-0.188,0c-0.703,-1.266 -1.453,-2.625 -2.109,-3.891l-2.578,-4.359l-5.813,0l6.844,11.015l-7.313,12Z" style="fill:#fff;fill-rule:nonzero;"/><path d="M151.375,152.437c1.875,1.594 3.891,2.532 5.906,2.532c5.11,0 9.844,-4.547 9.844,-12.422c0,-7.125 -3.328,-11.719 -9.047,-11.719c-2.531,0 -5.016,1.359 -6.937,3l-0.188,0l-0.375,-2.437l-4.453,0l0,32.109l5.391,0l0,-7.219l-0.141,-3.844Zm0.141,-3.843l0,-10.735c1.781,-1.734 3.375,-2.578 5.062,-2.578c3.469,0 4.969,2.719 4.969,7.313c0,5.203 -2.344,7.922 -5.391,7.922c-1.359,0 -2.953,-0.516 -4.64,-1.922Z" style="fill:#fff;fill-rule:nonzero;"/><path d="M171.062,142.922c0,7.594 4.969,12.047 11.344,12.047c2.906,0 5.672,-1.032 7.875,-2.485l-1.828,-3.375c-1.687,1.078 -3.375,1.688 -5.344,1.688c-3.703,0 -6.328,-2.344 -6.797,-6.516l14.625,0c0.141,-0.562 0.235,-1.5 0.235,-2.531c0,-6.422 -3.281,-10.922 -9.516,-10.922c-5.39,0 -10.594,4.594 -10.594,12.094Zm5.204,-2.063c0.468,-3.843 2.812,-5.859 5.531,-5.859c3.14,0 4.687,2.203 4.687,5.859l-10.218,0Z" style="fill:#fff;fill-rule:nonzero;"/><path d="M196.328,154.406l5.391,0l0,-14.062c1.406,-3.469 3.609,-4.735 5.437,-4.735c0.985,0 1.594,0.141 2.391,0.375l0.937,-4.687c-0.703,-0.328 -1.453,-0.469 -2.625,-0.469c-2.437,0 -4.875,1.641 -6.515,4.641l-0.188,0l-0.375,-4.078l-4.453,0l0,23.015Z" style="fill:#fff;fill-rule:nonzero;"/><path d="M216.531,127.359c1.922,0 3.328,-1.265 3.328,-3.047c0,-1.828 -1.406,-3.093 -3.328,-3.093c-1.922,0 -3.328,1.265 -3.328,3.093c0,1.782 1.406,3.047 3.328,3.047Zm-2.719,27.047l5.391,0l0,-23.015l-5.391,0l0,23.015Z" style="fill:#fff;fill-rule:nonzero;"/><path d="M224.594,142.922c0,7.594 4.969,12.047 11.344,12.047c2.906,0 5.671,-1.032 7.875,-2.485l-1.829,-3.375c-1.687,1.078 -3.375,1.688 -5.343,1.688c-3.703,0 -6.328,-2.344 -6.797,-6.516l14.625,0c0.14,-0.562 0.234,-1.5 0.234,-2.531c0,-6.422 -3.281,-10.922 -9.516,-10.922c-5.39,0 -10.593,4.594 -10.593,12.094Zm5.203,-2.063c0.469,-3.843 2.812,-5.859 5.531,-5.859c3.141,0 4.688,2.203 4.688,5.859l-10.219,0Z" style="fill:#fff;fill-rule:nonzero;"/><path d="M249.859,154.406l5.391,0l0,-16.078c1.922,-1.875 3.234,-2.859 5.25,-2.859c2.531,0 3.609,1.406 3.609,5.203l0,13.734l5.391,0l0,-14.437c0,-5.813 -2.156,-9.141 -7.078,-9.141c-3.141,0 -5.484,1.641 -7.547,3.656l-0.187,0l-0.375,-3.093l-4.454,0l0,23.015Z" style="fill:#fff;fill-rule:nonzero;"/><path d="M274.609,142.922c0,7.64 4.829,12.047 11.11,12.047c2.625,0 5.39,-1.032 7.547,-2.953l-2.25,-3.422c-1.266,1.031 -2.86,1.968 -4.735,1.968c-3.609,0 -6.14,-3.046 -6.14,-7.64c0,-4.641 2.578,-7.688 6.281,-7.688c1.453,0 2.672,0.61 3.891,1.688l2.578,-3.422c-1.547,-1.5 -3.797,-2.672 -6.75,-2.672c-6.141,0 -11.532,4.406 -11.532,12.094Z" style="fill:#fff;fill-rule:nonzero;"/><path d="M300.484,127.359c1.922,0 3.329,-1.265 3.329,-3.047c0,-1.828 -1.407,-3.093 -3.329,-3.093c-1.921,0 -3.328,1.265 -3.328,3.093c0,1.782 1.407,3.047 3.328,3.047Zm-2.718,27.047l5.39,0l0,-23.015l-5.39,0l0,23.015Z" style="fill:#fff;fill-rule:nonzero;"/><path d="M310.047,154.406l5.391,0l0,-16.078c1.921,-1.875 3.234,-2.859 5.25,-2.859c2.531,0 3.609,1.406 3.609,5.203l0,13.734l5.391,0l0,-14.437c0,-5.813 -2.157,-9.141 -7.079,-9.141c-3.14,0 -5.484,1.641 -7.546,3.656l-0.188,0l-0.375,-3.093l-4.453,0l0,23.015Z" style="fill:#fff;fill-rule:nonzero;"/><path d="M339.25,157.781c0,-1.078 0.563,-2.109 1.781,-3.047c0.891,0.235 1.875,0.328 3.141,0.328l3.141,0c2.625,0 4.078,0.516 4.078,2.297c0,1.969 -2.532,3.703 -6.235,3.703c-3.656,0 -5.906,-1.218 -5.906,-3.281Zm-4.5,0.797c0,4.031 4.078,6 9.563,6c7.5,0 12.281,-3.562 12.281,-8.109c0,-3.985 -2.906,-5.672 -8.438,-5.672l-4.078,0c-2.812,0 -3.75,-0.797 -3.75,-2.11c0,-1.031 0.422,-1.593 1.125,-2.203c1.031,0.422 2.156,0.61 3.141,0.61c4.875,0 8.719,-2.719 8.719,-7.828c0,-1.594 -0.563,-3 -1.313,-3.891l4.219,0l0,-3.984l-8.25,0c-0.938,-0.329 -2.11,-0.563 -3.375,-0.563c-4.828,0 -9.094,2.953 -9.094,8.25c0,2.719 1.453,4.922 3,6.094l0,0.187c-1.312,0.938 -2.531,2.485 -2.531,4.266c0,1.875 0.89,3.094 2.062,3.844l0,0.187c-2.109,1.313 -3.281,3 -3.281,4.922Zm9.844,-14.859c-2.25,0 -4.031,-1.688 -4.031,-4.641c0,-2.906 1.781,-4.547 4.031,-4.547c2.25,0 3.984,1.688 3.984,4.547c0,2.953 -1.781,4.641 -3.984,4.641Z" style="fill:#fff;fill-rule:nonzero;"/><path d="M382.609,154.969c7.969,0 13.5,-6.094 13.5,-16.032c0,-9.89 -5.531,-15.75 -13.5,-15.75c-8.015,0 -13.546,5.86 -13.546,15.75c0,9.938 5.531,16.032 13.546,16.032Zm0,-4.735c-4.828,0 -7.968,-4.406 -7.968,-11.297c0,-6.843 3.14,-11.015 7.968,-11.015c4.782,0 7.922,4.172 7.922,11.015c0,6.891 -3.14,11.297 -7.922,11.297Z" style="fill:#fff;fill-rule:nonzero;"/><path d="M401.734,154.406l5.391,0l0,-14.062c1.406,-3.469 3.609,-4.735 5.438,-4.735c0.984,0 1.593,0.141 2.39,0.375l0.938,-4.687c-0.703,-0.328 -1.453,-0.469 -2.625,-0.469c-2.438,0 -4.875,1.641 -6.516,4.641l-0.187,0l-0.375,-4.078l-4.454,0l0,23.015Z" style="fill:#fff;fill-rule:nonzero;"/><path d="M421.703,157.781c0,-1.078 0.563,-2.109 1.781,-3.047c0.891,0.235 1.875,0.328 3.141,0.328l3.141,0c2.625,0 4.078,0.516 4.078,2.297c0,1.969 -2.532,3.703 -6.235,3.703c-3.656,0 -5.906,-1.218 -5.906,-3.281Zm-4.5,0.797c0,4.031 4.078,6 9.563,6c7.5,0 12.281,-3.562 12.281,-8.109c0,-3.985 -2.906,-5.672 -8.438,-5.672l-4.078,0c-2.812,0 -3.75,-0.797 -3.75,-2.11c0,-1.031 0.422,-1.593 1.125,-2.203c1.031,0.422 2.156,0.61 3.141,0.61c4.875,0 8.719,-2.719 8.719,-7.828c0,-1.594 -0.563,-3 -1.313,-3.891l4.219,0l0,-3.984l-8.25,0c-0.938,-0.329 -2.11,-0.563 -3.375,-0.563c-4.828,0 -9.094,2.953 -9.094,8.25c0,2.719 1.453,4.922 3,6.094l0,0.187c-1.312,0.938 -2.531,2.485 -2.531,4.266c0,1.875 0.89,3.094 2.062,3.844l0,0.187c-2.109,1.313 -3.281,3 -3.281,4.922Zm9.844,-14.859c-2.25,0 -4.031,-1.688 -4.031,-4.641c0,-2.906 1.781,-4.547 4.031,-4.547c2.25,0 3.984,1.688 3.984,4.547c0,2.953 -1.781,4.641 -3.984,4.641Z" style="fill:#fff;fill-rule:nonzero;"/><path d="M441.359,148.219c0,4.031 2.813,6.75 6.844,6.75c2.719,0 5.063,-1.36 7.125,-3.094l0.141,0l0.422,2.531l4.406,0l0,-13.64c0,-6.422 -2.813,-9.938 -8.578,-9.938c-3.656,0 -6.891,1.406 -9.422,3l1.969,3.609c2.015,-1.218 4.171,-2.25 6.468,-2.25c3.094,0 4.125,2.063 4.172,4.5c-9.422,1.032 -13.547,3.61 -13.547,8.532Zm5.25,-0.422c0,-2.297 2.063,-3.938 8.297,-4.735l0,5.157c-1.687,1.593 -3.14,2.531 -5.015,2.531c-1.922,0 -3.282,-0.891 -3.282,-2.953Z" style="fill:#fff;fill-rule:nonzero;"/><path d="M466.859,154.406l5.391,0l0,-16.078c1.922,-1.875 3.234,-2.859 5.25,-2.859c2.531,0 3.609,1.406 3.609,5.203l0,13.734l5.391,0l0,-14.437c0,-5.813 -2.156,-9.141 -7.078,-9.141c-3.141,0 -5.484,1.641 -7.547,3.656l-0.188,0l-0.374,-3.093l-4.454,0l0,23.015Z" style="fill:#fff;fill-rule:nonzero;"/><path d="M495.828,127.359c1.922,0 3.328,-1.265 3.328,-3.047c0,-1.828 -1.406,-3.093 -3.328,-3.093c-1.922,0 -3.328,1.265 -3.328,3.093c0,1.782 1.406,3.047 3.328,3.047Zm-2.719,27.047l5.391,0l0,-23.015l-5.391,0l0,23.015Z" style="fill:#fff;fill-rule:nonzero;"/><path d="M503.563,154.406l18,0l0,-4.312l-11.204,0l10.829,-15.844l0,-2.859l-16.407,0l0,4.265l9.656,0l-10.875,15.844l0,2.906Z" style="fill:#fff;fill-rule:nonzero;"/><path d="M524.234,148.219c0,4.031 2.813,6.75 6.844,6.75c2.719,0 5.063,-1.36 7.125,-3.094l0.141,0l0.422,2.531l4.406,0l0,-13.64c0,-6.422 -2.813,-9.938 -8.578,-9.938c-3.657,0 -6.891,1.406 -9.422,3l1.969,3.609c2.015,-1.218 4.171,-2.25 6.468,-2.25c3.094,0 4.125,2.063 4.172,4.5c-9.422,1.032 -13.547,3.61 -13.547,8.532Zm5.25,-0.422c0,-2.297 2.063,-3.938 8.297,-4.735l0,5.157c-1.687,1.593 -3.14,2.531 -5.015,2.531c-1.922,0 -3.282,-0.891 -3.282,-2.953Z" style="fill:#fff;fill-rule:nonzero;"/><path d="M550.531,146.625c0,4.969 1.969,8.344 7.313,8.344c1.828,0 3.422,-0.422 4.687,-0.844l-0.937,-3.984c-0.657,0.281 -1.594,0.515 -2.391,0.515c-2.203,0 -3.234,-1.312 -3.234,-4.031l0,-10.969l5.859,0l0,-4.265l-5.859,0l0,-6.282l-4.5,0l-0.657,6.282l-3.562,0.234l0,4.031l3.281,0l0,10.969Z" style="fill:#fff;fill-rule:nonzero;"/><path d="M569.375,127.359c1.922,0 3.328,-1.265 3.328,-3.047c0,-1.828 -1.406,-3.093 -3.328,-3.093c-1.922,0 -3.328,1.265 -3.328,3.093c0,1.782 1.406,3.047 3.328,3.047Zm-2.719,27.047l5.391,0l0,-23.015l-5.391,0l0,23.015Z" style="fill:#fff;fill-rule:nonzero;"/><path d="M577.438,142.922c0,7.64 5.203,12.047 10.921,12.047c5.766,0 10.969,-4.407 10.969,-12.047c0,-7.688 -5.203,-12.094 -10.969,-12.094c-5.718,0 -10.922,4.406 -10.922,12.094Zm5.532,0c0,-4.641 2.015,-7.688 5.39,-7.688c3.375,0 5.438,3.047 5.438,7.688c0,4.594 -2.063,7.64 -5.438,7.64c-3.375,0 -5.39,-3.046 -5.39,-7.64Z" style="fill:#fff;fill-rule:nonzero;"/><path d="M604.672,154.406l5.39,0l0,-16.078c1.922,-1.875 3.235,-2.859 5.25,-2.859c2.532,0 3.61,1.406 3.61,5.203l0,13.734l5.39,0l0,-14.437c0,-5.813 -2.156,-9.141 -7.078,-9.141c-3.14,0 -5.484,1.641 -7.547,3.656l-0.187,0l-0.375,-3.093l-4.453,0l0,23.015Z" style="fill:#fff;fill-rule:nonzero;"/><path d="M629.938,148.219c0,4.031 2.812,6.75 6.843,6.75c2.719,0 5.063,-1.36 7.125,-3.094l0.141,0l0.422,2.531l4.406,0l0,-13.64c0,-6.422 -2.812,-9.938 -8.578,-9.938c-3.656,0 -6.891,1.406 -9.422,3l1.969,3.609c2.015,-1.218 4.172,-2.25 6.469,-2.25c3.093,0 4.125,2.063 4.171,4.5c-9.422,1.032 -13.547,3.61 -13.547,8.532Zm5.251,-0.422c0,-2.297 2.062,-3.938 8.296,-4.735l0,5.157c-1.687,1.593 -3.14,2.531 -5.015,2.531c-1.922,0 -3.281,-0.891 -3.281,-2.953Z" style="fill:#fff;fill-rule:nonzero;"/><path d="M655.438,148.5c0,3.984 1.406,6.469 5.25,6.469c1.265,0 2.203,-0.188 2.859,-0.469l-0.703,-4.031c-0.422,0.093 -0.61,0.093 -0.844,0.093c-0.563,0 -1.172,-0.468 -1.172,-1.781l0,-27.469l-5.39,0l0,27.188Z" style="fill:#fff;fill-rule:nonzero;"/><path d="M684.359,154.406l5.438,0l0,-26.062l8.812,0l0,-4.594l-23.109,0l0,4.594l8.859,0l0,26.062Z" style="fill:#fff;fill-rule:nonzero;"/><path d="M701.172,154.406l5.39,0l0,-14.062c1.407,-3.469 3.61,-4.735 5.438,-4.735c0.984,0 1.594,0.141 2.391,0.375l0.937,-4.687c-0.703,-0.328 -1.453,-0.469 -2.625,-0.469c-2.437,0 -4.875,1.641 -6.515,4.641l-0.188,0l-0.375,-4.078l-4.453,0l0,23.015Z" style="fill:#fff;fill-rule:nonzero;"/><path d="M716.422,148.219c0,4.031 2.812,6.75 6.844,6.75c2.718,0 5.062,-1.36 7.125,-3.094l0.14,0l0.422,2.531l4.406,0l0,-13.64c0,-6.422 -2.812,-9.938 -8.578,-9.938c-3.656,0 -6.89,1.406 -9.422,3l1.969,3.609c2.016,-1.218 4.172,-2.25 6.469,-2.25c3.094,0 4.125,2.063 4.172,4.5c-9.422,1.032 -13.547,3.61 -13.547,8.532Zm5.25,-0.422c0,-2.297 2.062,-3.938 8.297,-4.735l0,5.157c-1.688,1.593 -3.141,2.531 -5.016,2.531c-1.922,0 -3.281,-0.891 -3.281,-2.953Z" style="fill:#fff;fill-rule:nonzero;"/><path d="M741.922,154.406l5.39,0l0,-16.078c1.922,-1.875 3.235,-2.859 5.25,-2.859c2.532,0 3.61,1.406 3.61,5.203l0,13.734l5.39,0l0,-14.437c0,-5.813 -2.156,-9.141 -7.078,-9.141c-3.14,0 -5.484,1.641 -7.547,3.656l-0.187,0l-0.375,-3.093l-4.453,0l0,23.015Z" style="fill:#fff;fill-rule:nonzero;"/><path d="M765.875,151.781c2.25,1.828 5.578,3.188 8.719,3.188c5.812,0 8.953,-3.188 8.953,-7.125c0,-4.313 -3.469,-5.813 -6.61,-6.985c-2.484,-0.89 -4.781,-1.64 -4.781,-3.422c0,-1.453 1.078,-2.531 3.375,-2.531c1.828,0 3.469,0.797 5.063,1.969l2.484,-3.281c-1.875,-1.453 -4.453,-2.766 -7.641,-2.766c-5.156,0 -8.39,2.859 -8.39,6.891c0,3.843 3.422,5.578 6.469,6.703c2.437,0.937 4.921,1.781 4.921,3.703c0,1.594 -1.171,2.766 -3.656,2.766c-2.344,0 -4.312,-0.985 -6.375,-2.579l-2.531,3.469Z" style="fill:#fff;fill-rule:nonzero;"/><path d="M801.172,121.547c-1.031,-0.422 -2.578,-0.797 -4.219,-0.797c-5.437,0 -7.64,3.469 -7.64,8.25l0,2.391l-3.094,0.234l0,4.031l3.094,0l0,18.75l5.39,0l0,-18.75l4.5,0l0,-4.265l-4.5,0l0,-2.485c0,-2.672 1.031,-3.89 2.906,-3.89c0.797,0 1.688,0.187 2.532,0.562l1.031,-4.031Z" style="fill:#fff;fill-rule:nonzero;"/><path d="M801.266,142.922c0,7.64 5.203,12.047 10.922,12.047c5.765,0 10.968,-4.407 10.968,-12.047c0,-7.688 -5.203,-12.094 -10.968,-12.094c-5.719,0 -10.922,4.406 -10.922,12.094Zm5.531,0c0,-4.641 2.016,-7.688 5.391,-7.688c3.375,0 5.437,3.047 5.437,7.688c0,4.594 -2.062,7.64 -5.437,7.64c-3.375,0 -5.391,-3.046 -5.391,-7.64Z" style="fill:#fff;fill-rule:nonzero;"/><path d="M828.5,154.406l5.391,0l0,-14.062c1.406,-3.469 3.609,-4.735 5.437,-4.735c0.985,0 1.594,0.141 2.391,0.375l0.937,-4.687c-0.703,-0.328 -1.453,-0.469 -2.625,-0.469c-2.437,0 -4.875,1.641 -6.515,4.641l-0.188,0l-0.375,-4.078l-4.453,0l0,23.015Z" style="fill:#fff;fill-rule:nonzero;"/><path d="M845.984,154.406l5.391,0l0,-16.078c1.781,-1.922 3.422,-2.859 4.828,-2.859c2.438,0 3.563,1.406 3.563,5.203l0,13.734l5.39,0l0,-16.078c1.782,-1.922 3.375,-2.859 4.828,-2.859c2.391,0 3.516,1.406 3.516,5.203l0,13.734l5.438,0l0,-14.437c0,-5.813 -2.25,-9.141 -7.125,-9.141c-2.907,0 -5.204,1.781 -7.407,4.125c-1.078,-2.578 -3,-4.125 -6.375,-4.125c-2.859,0 -5.109,1.641 -7.031,3.703l-0.187,0l-0.375,-3.14l-4.454,0l0,23.015Z" style="fill:#fff;fill-rule:nonzero;"/><path d="M884.516,148.219c0,4.031 2.812,6.75 6.843,6.75c2.719,0 5.063,-1.36 7.125,-3.094l0.141,0l0.422,2.531l4.406,0l0,-13.64c0,-6.422 -2.812,-9.938 -8.578,-9.938c-3.656,0 -6.891,1.406 -9.422,3l1.969,3.609c2.016,-1.218 4.172,-2.25 6.469,-2.25c3.093,0 4.125,2.063 4.172,4.5c-9.422,1.032 -13.547,3.61 -13.547,8.532Zm5.25,-0.422c0,-2.297 2.062,-3.938 8.297,-4.735l0,5.157c-1.688,1.593 -3.141,2.531 -5.016,2.531c-1.922,0 -3.281,-0.891 -3.281,-2.953Z" style="fill:#fff;fill-rule:nonzero;"/><path d="M910.813,146.625c0,4.969 1.968,8.344 7.312,8.344c1.828,0 3.422,-0.422 4.688,-0.844l-0.938,-3.984c-0.656,0.281 -1.594,0.515 -2.391,0.515c-2.203,0 -3.234,-1.312 -3.234,-4.031l0,-10.969l5.859,0l0,-4.265l-5.859,0l0,-6.282l-4.5,0l-0.656,6.282l-3.563,0.234l0,4.031l3.282,0l0,10.969Z" style="fill:#fff;fill-rule:nonzero;"/><path d="M929.656,127.359c1.922,0 3.328,-1.265 3.328,-3.047c0,-1.828 -1.406,-3.093 -3.328,-3.093c-1.922,0 -3.328,1.265 -3.328,3.093c0,1.782 1.406,3.047 3.328,3.047Zm-2.718,27.047l5.39,0l0,-23.015l-5.39,0l0,23.015Z" style="fill:#fff;fill-rule:nonzero;"/><path d="M937.719,142.922c0,7.64 5.203,12.047 10.922,12.047c5.765,0 10.968,-4.407 10.968,-12.047c0,-7.688 -5.203,-12.094 -10.968,-12.094c-5.719,0 -10.922,4.406 -10.922,12.094Zm5.531,0c0,-4.641 2.016,-7.688 5.391,-7.688c3.375,0 5.437,3.047 5.437,7.688c0,4.594 -2.062,7.64 -5.437,7.64c-3.375,0 -5.391,-3.046 -5.391,-7.64Z" style="fill:#fff;fill-rule:nonzero;"/><path d="M964.953,154.406l5.391,0l0,-16.078c1.922,-1.875 3.234,-2.859 5.25,-2.859c2.531,0 3.609,1.406 3.609,5.203l0,13.734l5.391,0l0,-14.437c0,-5.813 -2.156,-9.141 -7.078,-9.141c-3.141,0 -5.485,1.641 -7.547,3.656l-0.188,0l-0.375,-3.093l-4.453,0l0,23.015Z" style="fill:#fff;fill-rule:nonzero;"/></g></svg>