<?xml version="1.0" encoding="UTF-8" standalone="no"?>
<!DOCTYPE svg PUBLIC "-//W3C//DTD SVG 1.1//EN" "http://www.w3.org/Graphics/SVG/1.1/DTD/svg11.dtd">
<svg width="100%" height="100%" viewBox="0 0 395 49" version="1.1" xmlns="http://www.w3.org/2000/svg" xmlns:xlink="http://www.w3.org/1999/xlink" xml:space="preserve" xmlns:serif="http://www.serif.com/" style="fill-rule:evenodd;clip-rule:evenodd;stroke-linejoin:round;stroke-miterlimit:2;">
    <g id="Logo_x2F_Tag-Copy">
        <g>
            <path d="M57.8,0.9L46.3,37.4L54.7,37.4L57,28.7L68.1,28.7L70.3,37.4L79,37.4L67.5,0.9L57.8,0.9ZM58.7,22.3L59.6,18.9C60.6,15.3 61.6,11 62.5,7.1L62.7,7.1C63.7,10.9 64.6,15.2 65.7,18.9L66.6,22.3L58.7,22.3Z" style="fill:white;fill-rule:nonzero;"/>
            <path d="M95.7,23.6L101.7,23.6L101.7,29.9C100.8,30.6 99.3,31 97.8,31C90.9,31 87.5,26.6 87.5,19.1C87.5,11.8 91.5,7.4 97.1,7.4C100.2,7.4 102.2,8.6 104,10.3L108.3,5C105.8,2.5 102.1,0.3 96.8,0.3C87.1,0.3 79,7.3 79,19.4C79,31.7 86.8,38.1 96.9,38.1C102,38.1 106.4,36.1 108.9,33.7L108.9,16.9L95.7,16.9L95.7,23.6Z" style="fill:white;fill-rule:nonzero;"/>
            <rect x="114.7" y="0.9" width="8.3" height="36.5" style="fill:white;"/>
            <path d="M137.1,0.9L128.8,0.9L128.8,37.4L151.5,37.4L151.5,30.5L137.1,30.5L137.1,0.9Z" style="fill:white;fill-rule:nonzero;"/>
            <path d="M163,22.1L175.5,22.1L175.5,15.2L163,15.2L163,7.8L177.6,7.8L177.6,0.9L154.8,0.9L154.8,37.4L178.2,37.4L178.2,30.5L163,30.5L163,22.1Z" style="fill:white;fill-rule:nonzero;"/>
            <path d="M196.7,34.2C191.7,34.2 188.3,30 188.3,23.8C188.3,17.6 191.9,13.3 196.8,13.3C198.9,13.3 200.6,14.3 202.2,15.7L204.6,12.7C202.7,11 200.2,9.5 196.6,9.5C189.6,9.5 183.5,14.7 183.5,23.8C183.5,32.8 189,38 196.3,38C199.6,38 202.7,36.7 205.1,34.5L203.1,31.4C201.4,33 199.2,34.2 196.7,34.2Z" style="fill:white;fill-rule:nonzero;"/>
            <path d="M219,9.5C214.6,9.5 210.8,11.4 208.3,13.1L210.1,16.3C212.2,14.9 215.1,13.4 218.2,13.4C222.6,13.4 223.8,16.8 223.8,20.3C212.2,21.6 207.1,24.5 207.1,30.5C207.1,35.4 210.5,38.2 215.1,38.2C218.5,38.2 221.5,36.4 224.1,34.3L224.3,34.3L224.7,37.6L228.5,37.6L228.5,20.9C228.5,13.9 225.7,9.5 219,9.5ZM223.9,30.8C221.3,33.1 219.1,34.4 216.5,34.4C213.8,34.4 211.7,33.1 211.7,30C211.7,26.5 214.8,24.3 223.9,23.2L223.9,30.8Z" style="fill:white;fill-rule:nonzero;"/>
            <path d="M262.5,9.5C259.2,9.5 256.4,11.6 253.5,14.7C252.4,11.5 250.1,9.5 246,9.5C242.8,9.5 239.9,11.5 237.5,14.1L237.3,14.1L236.9,10.2L233.1,10.2L233.1,37.4L237.7,37.4L237.7,17.7C240.2,14.9 242.5,13.5 244.5,13.5C248,13.5 249.6,15.7 249.6,20.7L249.6,37.4L254.2,37.4L254.2,17.7C256.7,14.9 258.9,13.5 261,13.5C264.5,13.5 266.1,15.7 266.1,20.7L266.1,37.4L270.7,37.4L270.7,20.2C270.8,13.2 268.1,9.5 262.5,9.5Z" style="fill:white;fill-rule:nonzero;"/>
            <path d="M288.2,9.5C285,9.5 282,11.3 279.5,13.3L279.3,13.3L278.9,10.2L275.1,10.2L275.1,48.9L279.7,48.9L279.7,39.7L279.6,34.9C282.1,36.9 284.7,38.1 287.1,38.1C293.3,38.1 298.9,32.7 298.9,23.4C299,15 295.2,9.5 288.2,9.5ZM286.4,34.2C284.6,34.2 282.2,33.4 279.8,31.4L279.8,17.1C282.4,14.7 284.8,13.4 287.1,13.4C292.2,13.4 294.3,17.4 294.3,23.4C294.2,30.1 290.9,34.2 286.4,34.2Z" style="fill:white;fill-rule:nonzero;"/>
            <path d="M39.2,2.4C36.4,-0.4 31.9,-0.5 29,2C23,-0.1 16,1.2 11.2,6.1C10.9,6.4 10.6,6.8 10.3,7.1C7.7,6.2 4.6,6.8 2.5,8.9C-0.4,11.8 -0.4,16.6 2.5,19.5C3.6,20.6 5,21.3 6.5,21.6C7.1,24.9 8.8,28 11.2,30.4C13.7,32.9 16.8,34.5 20,35.1C20.3,36.6 20.9,38 22.1,39.1C25,42 29.8,42 32.7,39.1C34.8,37 35.4,33.9 34.5,31.3C34.8,31 35.2,30.7 35.5,30.4C40.3,25.6 41.7,18.6 39.6,12.6C42.1,9.7 42,5.2 39.2,2.4ZM34.1,29.1C33.9,29.3 33.7,29.4 33.6,29.6C33.3,29.2 33.1,28.9 32.7,28.5C29.8,25.6 25,25.6 22.1,28.5C20.8,29.8 20.1,31.4 20,33.1C17.3,32.5 14.7,31.1 12.6,29C10.5,26.9 9.1,24.4 8.5,21.6C10.2,21.4 11.9,20.8 13.1,19.5C16,16.6 16,11.8 13.1,8.9C12.8,8.6 12.4,8.3 12,8C12.2,7.8 12.3,7.6 12.5,7.5C15.5,4.5 19.4,3 23.3,3C24.7,3 26.2,3.2 27.5,3.6C25.6,6.5 25.9,10.5 28.5,13C31.1,15.6 35,15.9 37.9,14C39.5,19.2 38.2,25 34.1,29.1Z" style="fill:white;fill-rule:nonzero;"/>
        </g>
        <g transform="matrix(3,0,0,1.30769,-613,-3.06554)">
            <g transform="matrix(14,0,0,32.1176,307,30.8678)">
                <path d="M0.04,-0L0.452,-0L0.452,-0.071L0.267,-0.071C0.234,-0.071 0.195,-0.068 0.16,-0.065C0.311,-0.223 0.42,-0.342 0.42,-0.462C0.42,-0.575 0.347,-0.65 0.229,-0.65C0.146,-0.65 0.089,-0.611 0.036,-0.553L0.083,-0.506C0.12,-0.549 0.166,-0.583 0.219,-0.583C0.3,-0.583 0.34,-0.531 0.34,-0.458C0.34,-0.355 0.232,-0.24 0.04,-0.049L0.04,-0Z" style="fill:white;fill-rule:nonzero;"/>
            </g>
            <g transform="matrix(14,0,0,32.1176,313.538,30.8678)">
                <path d="M0.249,0.012C0.376,0.012 0.453,-0.107 0.453,-0.321C0.453,-0.535 0.376,-0.65 0.249,-0.65C0.121,-0.65 0.044,-0.535 0.044,-0.321C0.044,-0.107 0.121,0.012 0.249,0.012ZM0.249,-0.054C0.174,-0.054 0.124,-0.134 0.124,-0.321C0.124,-0.508 0.174,-0.584 0.249,-0.584C0.323,-0.584 0.373,-0.508 0.373,-0.321C0.373,-0.134 0.323,-0.054 0.249,-0.054Z" style="fill:white;fill-rule:nonzero;"/>
            </g>
            <g transform="matrix(14,0,0,32.1176,320.076,30.8678)">
                <path d="M0.04,-0L0.452,-0L0.452,-0.071L0.267,-0.071C0.234,-0.071 0.195,-0.068 0.16,-0.065C0.311,-0.223 0.42,-0.342 0.42,-0.462C0.42,-0.575 0.347,-0.65 0.229,-0.65C0.146,-0.65 0.089,-0.611 0.036,-0.553L0.083,-0.506C0.12,-0.549 0.166,-0.583 0.219,-0.583C0.3,-0.583 0.34,-0.531 0.34,-0.458C0.34,-0.355 0.232,-0.24 0.04,-0.049L0.04,-0Z" style="fill:white;fill-rule:nonzero;"/>
            </g>
            <g transform="matrix(14,0,0,32.1176,326.614,30.8678)">
                <path d="M0.079,-0L0.439,-0L0.439,-0.068L0.307,-0.068L0.307,-0.638L0.244,-0.638C0.209,-0.617 0.167,-0.601 0.109,-0.591L0.109,-0.538L0.225,-0.538L0.225,-0.068L0.079,-0.068L0.079,-0Z" style="fill:white;fill-rule:nonzero;"/>
            </g>
        </g>
    </g>
</svg>
