<?xml version="1.0" encoding="UTF-8" standalone="no"?><!DOCTYPE svg PUBLIC "-//W3C//DTD SVG 1.1//EN" "http://www.w3.org/Graphics/SVG/1.1/DTD/svg11.dtd"><svg width="100%" height="100%" viewBox="0 0 395 49" version="1.1" xmlns="http://www.w3.org/2000/svg" xmlns:xlink="http://www.w3.org/1999/xlink" xml:space="preserve" xmlns:serif="http://www.serif.com/" style="fill-rule:evenodd;clip-rule:evenodd;stroke-linejoin:round;stroke-miterlimit:2;"><g id="Logo_x2F_Tag-Copy"><g><path d="M57.8,0.9l-11.5,36.5l8.4,0l2.3,-8.7l11.1,0l2.2,8.7l8.7,0l-11.5,-36.5l-9.7,0Zm0.9,21.4l0.9,-3.4c1,-3.6 2,-7.9 2.9,-11.8l0.2,0c1,3.8 1.9,8.1 3,11.8l0.9,3.4l-7.9,0Z" style="fill:#fff;fill-rule:nonzero;"/><path d="M95.7,23.6l6,0l0,6.3c-0.9,0.7 -2.4,1.1 -3.9,1.1c-6.9,0 -10.3,-4.4 -10.3,-11.9c0,-7.3 4,-11.7 9.6,-11.7c3.1,0 5.1,1.2 6.9,2.9l4.3,-5.3c-2.5,-2.5 -6.2,-4.7 -11.5,-4.7c-9.7,0 -17.8,7 -17.8,19.1c0,12.3 7.8,18.7 17.9,18.7c5.1,0 9.5,-2 12,-4.4l0,-16.8l-13.2,0l0,6.7Z" style="fill:#fff;fill-rule:nonzero;"/><rect x="114.7" y="0.9" width="8.3" height="36.5" style="fill:#fff;"/><path d="M137.1,0.9l-8.3,0l0,36.5l22.7,0l0,-6.9l-14.4,0l0,-29.6Z" style="fill:#fff;fill-rule:nonzero;"/><path d="M163,22.1l12.5,0l0,-6.9l-12.5,0l0,-7.4l14.6,0l0,-6.9l-22.8,0l0,36.5l23.4,0l0,-6.9l-15.2,0l0,-8.4Z" style="fill:#fff;fill-rule:nonzero;"/><path d="M196.7,34.2c-5,0 -8.4,-4.2 -8.4,-10.4c0,-6.2 3.6,-10.5 8.5,-10.5c2.1,0 3.8,1 5.4,2.4l2.4,-3c-1.9,-1.7 -4.4,-3.2 -8,-3.2c-7,0 -13.1,5.2 -13.1,14.3c0,9 5.5,14.2 12.8,14.2c3.3,0 6.4,-1.3 8.8,-3.5l-2,-3.1c-1.7,1.6 -3.9,2.8 -6.4,2.8Z" style="fill:#fff;fill-rule:nonzero;"/><path d="M219,9.5c-4.4,0 -8.2,1.9 -10.7,3.6l1.8,3.2c2.1,-1.4 5,-2.9 8.1,-2.9c4.4,0 5.6,3.4 5.6,6.9c-11.6,1.3 -16.7,4.2 -16.7,10.2c0,4.9 3.4,7.7 8,7.7c3.4,0 6.4,-1.8 9,-3.9l0.2,0l0.4,3.3l3.8,0l0,-16.7c0,-7 -2.8,-11.4 -9.5,-11.4Zm4.9,21.3c-2.6,2.3 -4.8,3.6 -7.4,3.6c-2.7,0 -4.8,-1.3 -4.8,-4.4c0,-3.5 3.1,-5.7 12.2,-6.8l0,7.6Z" style="fill:#fff;fill-rule:nonzero;"/><path d="M262.5,9.5c-3.3,0 -6.1,2.1 -9,5.2c-1.1,-3.2 -3.4,-5.2 -7.5,-5.2c-3.2,0 -6.1,2 -8.5,4.6l-0.2,0l-0.4,-3.9l-3.8,0l0,27.2l4.6,0l0,-19.7c2.5,-2.8 4.8,-4.2 6.8,-4.2c3.5,0 5.1,2.2 5.1,7.2l0,16.7l4.6,0l0,-19.7c2.5,-2.8 4.7,-4.2 6.8,-4.2c3.5,0 5.1,2.2 5.1,7.2l0,16.7l4.6,0l0,-17.2c0.1,-7 -2.6,-10.7 -8.2,-10.7Z" style="fill:#fff;fill-rule:nonzero;"/><path d="M288.2,9.5c-3.2,0 -6.2,1.8 -8.7,3.8l-0.2,0l-0.4,-3.1l-3.8,0l0,38.7l4.6,0l0,-9.2l-0.1,-4.8c2.5,2 5.1,3.2 7.5,3.2c6.2,0 11.8,-5.4 11.8,-14.7c0.1,-8.4 -3.7,-13.9 -10.7,-13.9Zm-1.8,24.7c-1.8,0 -4.2,-0.8 -6.6,-2.8l0,-14.3c2.6,-2.4 5,-3.7 7.3,-3.7c5.1,0 7.2,4 7.2,10c-0.1,6.7 -3.4,10.8 -7.9,10.8Z" style="fill:#fff;fill-rule:nonzero;"/><path d="M39.2,2.4c-2.8,-2.8 -7.3,-2.9 -10.2,-0.4c-6,-2.1 -13,-0.8 -17.8,4.1c-0.3,0.3 -0.6,0.7 -0.9,1c-2.6,-0.9 -5.7,-0.3 -7.8,1.8c-2.9,2.9 -2.9,7.7 0,10.6c1.1,1.1 2.5,1.8 4,2.1c0.6,3.3 2.3,6.4 4.7,8.8c2.5,2.5 5.6,4.1 8.8,4.7c0.3,1.5 0.9,2.9 2.1,4c2.9,2.9 7.7,2.9 10.6,0c2.1,-2.1 2.7,-5.2 1.8,-7.8c0.3,-0.3 0.7,-0.6 1,-0.9c4.8,-4.8 6.2,-11.8 4.1,-17.8c2.5,-2.9 2.4,-7.4 -0.4,-10.2Zm-5.1,26.7c-0.2,0.2 -0.4,0.3 -0.5,0.5c-0.3,-0.4 -0.5,-0.7 -0.9,-1.1c-2.9,-2.9 -7.7,-2.9 -10.6,0c-1.3,1.3 -2,2.9 -2.1,4.6c-2.7,-0.6 -5.3,-2 -7.4,-4.1c-2.1,-2.1 -3.5,-4.6 -4.1,-7.4c1.7,-0.2 3.4,-0.8 4.6,-2.1c2.9,-2.9 2.9,-7.7 0,-10.6c-0.3,-0.3 -0.7,-0.6 -1.1,-0.9c0.2,-0.2 0.3,-0.4 0.5,-0.5c3,-3 6.9,-4.5 10.8,-4.5c1.4,0 2.9,0.2 4.2,0.6c-1.9,2.9 -1.6,6.9 1,9.4c2.6,2.6 6.5,2.9 9.4,1c1.6,5.2 0.3,11 -3.8,15.1Z" style="fill:#fff;fill-rule:nonzero;"/></g><g><path d="M309.4,35.4c8.1,-8 12.6,-12.9 12.6,-17.2c0,-3.1 -1.7,-5.3 -5.1,-5.3c-2.2,0 -4.2,1.4 -5.7,3.2l-2,-2c2.2,-2.4 4.6,-4.1 8.1,-4.1c5,0 8,3.2 8,7.9c0,5 -4.6,10 -10.9,16.7c1.5,-0.1 3.1,-0.3 4.5,-0.3l7.8,0l0,3l-17.3,0l0,-1.9Z" style="fill:#fff;fill-rule:nonzero;"/><path d="M328.7,24c0,-9 3.2,-13.8 8.6,-13.8c5.3,0 8.6,4.8 8.6,13.8c0,9 -3.2,14 -8.6,14c-5.4,0 -8.6,-5 -8.6,-14Zm13.8,0c0,-7.9 -2.1,-11 -5.2,-11c-3.2,0 -5.2,3.2 -5.2,11c0,7.8 2.1,11.2 5.2,11.2c3.1,0 5.2,-3.3 5.2,-11.2Z" style="fill:#fff;fill-rule:nonzero;"/></g><g><path d="M348.5,35.4c8.1,-8 12.6,-12.9 12.6,-17.2c0,-3.1 -1.7,-5.3 -5.1,-5.3c-2.2,0 -4.2,1.4 -5.7,3.2l-2,-2c2.2,-2.4 4.6,-4.1 8.1,-4.1c5,0 8,3.2 8,7.9c0,5 -4.6,10 -10.9,16.7c1.5,-0.1 3.1,-0.3 4.5,-0.3l7.8,0l0,3l-17.3,0l0,-1.9Z" style="fill:#fff;fill-rule:nonzero;"/><path d="M367.8,24c0,-9 3.2,-13.8 8.6,-13.8c5.3,0 8.6,4.8 8.6,13.8c0,9 -3.2,14 -8.6,14c-5.4,0 -8.6,-5 -8.6,-14Zm13.8,0c0,-7.9 -2.1,-11 -5.2,-11c-3.2,0 -5.2,3.2 -5.2,11c0,7.8 2.1,11.2 5.2,11.2c3.1,0 5.2,-3.3 5.2,-11.2Z" style="fill:#fff;fill-rule:nonzero;"/></g></g></svg>