<?xml version="1.0" encoding="UTF-8" standalone="no"?><!DOCTYPE svg PUBLIC "-//W3C//DTD SVG 1.1//EN" "http://www.w3.org/Graphics/SVG/1.1/DTD/svg11.dtd"><svg width="100%" height="100%" viewBox="0 0 637 104" version="1.1" xmlns="http://www.w3.org/2000/svg" xmlns:xlink="http://www.w3.org/1999/xlink" xml:space="preserve" xmlns:serif="http://www.serif.com/" style="fill-rule:evenodd;clip-rule:evenodd;stroke-linejoin:round;stroke-miterlimit:1.41421;"><g><clipPath id="_clip1"><rect x="0" y="0" width="636.547" height="103.656" clip-rule="nonzero"/></clipPath><g clip-path="url(#_clip1)"><path d="M124.537,47.005l1.865,-7.194c2.16,-7.772 4.235,-16.872 6.119,-25.081l0.475,0c2.075,8.109 4.15,17.309 6.316,25.081l1.856,7.194l-16.631,0Zm-1.904,-45.569l-24.421,77.76l17.978,0l4.803,-18.522l23.703,0l4.784,18.522l18.607,0l-24.419,-77.76l-21.035,0Z" style="fill:#fff;fill-rule:nonzero;"/><path d="M203.398,49.705l12.882,0l0,13.431c-1.894,1.494 -5.119,2.312 -8.232,2.312c-14.643,0 -21.881,-9.293 -21.881,-25.278c0,-15.59 8.51,-24.987 20.478,-24.987c6.657,0 10.816,2.631 14.675,6.187l9.263,-11.278c-5.235,-5.278 -13.25,-10.094 -24.535,-10.094c-20.759,0 -37.896,14.963 -37.896,40.763c0,26.194 16.662,39.866 38.084,39.866c10.85,0 20.297,-4.172 25.656,-9.422l0,-35.85l-28.494,0l0,14.35Z" style="fill:#fff;fill-rule:nonzero;"/><rect x="243.862" y="1.434" width="17.578" height="77.759" style="fill:#fff;"/><path d="M291.524,1.435l-17.578,0l0,77.759l48.275,0l0,-14.747l-30.697,0l0,-63.012Z" style="fill:#fff;fill-rule:nonzero;"/><path d="M346.833,46.536l26.513,0l0,-14.747l-26.513,0l0,-15.613l31.144,0l0,-14.74l-48.722,0l0,77.759l49.916,0l0,-14.747l-32.338,0l0,-17.912Z" style="fill:#fff;fill-rule:nonzero;"/><path d="M418.507,72.454c-10.666,0 -17.938,-8.894 -17.938,-22.185c0,-13.29 7.7,-22.334 18.203,-22.334c4.56,0 8.125,2.072 11.506,5.125l5.022,-6.488c-4.084,-3.665 -9.356,-6.809 -16.972,-6.809c-14.828,0 -27.903,11.153 -27.903,30.506c0,19.203 11.772,30.357 27.203,30.357c6.963,0 13.538,-2.729 18.75,-7.372l-4.256,-6.575c-3.619,3.203 -8.315,5.775 -13.615,5.775" style="fill:#fff;fill-rule:nonzero;"/><path d="M476.455,65.045c-5.616,4.947 -10.238,7.675 -15.844,7.675c-5.688,0 -10.159,-2.685 -10.159,-9.269c0,-7.419 6.568,-12.178 26.003,-14.513l0,16.107Zm-10.325,-45.282c-9.307,0 -17.447,4.069 -22.778,7.575l3.84,6.725c4.541,-3.037 10.585,-6.215 17.294,-6.215c9.472,0 11.947,7.187 11.969,14.647c-24.719,2.687 -35.622,9.003 -35.622,21.643c0,10.463 7.287,16.488 16.994,16.488c7.2,0 13.653,-3.766 19.181,-8.366l0.325,0l0.828,6.935l8.109,0l0,-35.585c0,-14.437 -5.99,-23.847 -20.14,-23.847" style="fill:#fff;fill-rule:nonzero;"/><path d="M558.805,19.765c-7.056,0 -13.1,4.531 -19.125,11.053c-2.39,-6.806 -7.143,-11.053 -16.009,-11.053c-6.906,0 -12.975,4.362 -18.044,9.843l-0.331,0l-0.828,-8.409l-8.103,0l0,57.997l9.815,0l0,-42.003c5.36,-5.966 10.182,-8.903 14.532,-8.903c7.375,0 10.787,4.618 10.787,15.425l0,35.481l9.816,0l0,-42.003c5.365,-5.966 10.037,-8.903 14.531,-8.903c7.375,0 10.797,4.618 10.797,15.425l0,35.481l9.809,0l0,-36.75c0,-14.797 -5.728,-22.681 -17.647,-22.681" style="fill:#fff;fill-rule:nonzero;"/><path d="M609.739,72.365c-3.835,0 -8.875,-1.618 -14.116,-6.028l0,-30.403c5.634,-5.209 10.588,-7.909 15.494,-7.909c10.912,0 15.287,8.578 15.287,21.375c0,14.325 -7.065,22.965 -16.665,22.965m3.809,-52.6c-6.716,0 -13.241,3.769 -18.481,8.125l-0.331,0l-0.829,-6.69l-8.106,0l0,82.459l9.822,0l0,-19.628l-0.266,-10.125c5.319,4.269 10.763,6.719 16.072,6.719c13.25,0 25.119,-11.538 25.119,-31.313c0,-17.915 -8.012,-29.547 -23,-29.547" style="fill:#fff;fill-rule:nonzero;"/><path d="M72.184,61.484c-0.369,0.368 -0.766,0.69 -1.147,1.037c-0.544,-0.784 -1.134,-1.544 -1.831,-2.247c-6.266,-6.262 -16.425,-6.262 -22.691,0c-2.762,2.76 -4.231,6.278 -4.562,9.885c-5.778,-1.31 -11.275,-4.182 -15.769,-8.675c-4.403,-4.4 -7.356,-9.847 -8.697,-15.772c3.613,-0.325 7.138,-1.797 9.903,-4.56c6.266,-6.265 6.266,-16.425 0,-22.69c-0.7,-0.7 -1.462,-1.294 -2.247,-1.835c0.347,-0.381 0.672,-0.781 1.041,-1.146c6.344,-6.341 14.669,-9.513 23,-9.513c3.044,0 6.088,0.434 9.034,1.284c-4.059,6.222 -3.368,14.638 2.097,20.1c5.46,5.463 13.878,6.157 20.1,2.097c3.163,11.01 0.428,23.378 -8.231,32.035m10.819,-56.822c-5.981,-5.978 -15.466,-6.185 -21.769,-0.75c-12.862,-4.46 -27.719,-1.603 -37.972,8.65c-0.687,0.687 -1.322,1.415 -1.947,2.147c-5.631,-1.96 -12.118,-0.744 -16.615,3.753c-6.269,6.265 -6.269,16.425 0,22.69c2.409,2.41 5.397,3.872 8.512,4.429c1.381,7.087 4.831,13.606 10.05,18.825c5.338,5.331 11.919,8.671 18.822,10.025c0.553,3.125 2.016,6.121 4.431,8.534c6.266,6.266 16.425,6.266 22.691,0c4.497,-4.5 5.712,-10.984 3.747,-16.616c0.731,-0.625 1.462,-1.256 2.153,-1.943c10.25,-10.254 13.106,-25.11 8.647,-37.972c5.434,-6.303 5.231,-15.791 -0.75,-21.772" style="fill:#fff;fill-rule:nonzero;"/></g></g></svg>