<?xml version="1.0" encoding="UTF-8"?>
<svg width="18px" height="21px" viewBox="0 0 18 21" version="1.1" xmlns="http://www.w3.org/2000/svg" xmlns:xlink="http://www.w3.org/1999/xlink">
    <!-- Generator: Sketch 52.5 (67469) - http://www.bohemiancoding.com/sketch -->
    <title>ic_event_available copy 4</title>
    <desc>Created with Sketch.</desc>
    <g id="Website" stroke="none" stroke-width="1" fill="none" fill-rule="evenodd">
        <g id="HomePage" transform="translate(-68.000000, -2239.000000)">
            <g id="Accepting-Submisions-Copy" transform="translate(0.000000, 1607.000000)">
                <g id="Dates" transform="translate(65.000000, 385.000000)">
                    <g transform="translate(0.000000, 59.736842)" id="Group">
                        <g>
                            <g id="ic_event_available-copy-4" transform="translate(0.000000, 186.000000)">
                                <g id="Icon-24px">
                                    <polygon id="Shape" points="0 0 24 0 24 24 0 24"></polygon>
                                    <path d="M16.53,12.06 L15.47,11 L10.59,15.88 L8.47,13.76 L7.41,14.82 L10.59,18 L16.53,12.06 L16.53,12.06 Z M19,4 L18,4 L18,2 L16,2 L16,4 L8,4 L8,2 L6,2 L6,4 L5,4 C3.89,4 3.01,4.9 3.01,6 L3,20 C3,21.1 3.89,22 5,22 L19,22 C20.1,22 21,21.1 21,20 L21,6 C21,4.9 20.1,4 19,4 L19,4 Z M19,20 L5,20 L5,9 L19,9 L19,20 L19,20 Z" id="Shape" fill="#55C1F6"></path>
                                </g>
                            </g>
                        </g>
                    </g>
                </g>
            </g>
        </g>
    </g>
</svg>